<svg  width="39" height="33" viewBox="0 0 39 33" fill="none" xmlns="http://www.w3.org/2000/svg">
<rect width="39" height="33" rx="10" fill="#F3F4F6"/>
<path  d="M10.5 11.25C10.5 10.8358 10.8358 10.5 11.25 10.5H27.75C28.1642 10.5 28.5 10.8358 28.5 11.25C28.5 11.6642 28.1642 12 27.75 12H11.25C10.8358 12 10.5 11.6642 10.5 11.25Z" fill="black"/>
<path  d="M10.5 16.5C10.5 16.0858 10.8358 15.75 11.25 15.75H27.75C28.1642 15.75 28.5 16.0858 28.5 16.5C28.5 16.9142 28.1642 17.25 27.75 17.25H11.25C10.8358 17.25 10.5 16.9142 10.5 16.5Z" fill="black"/>
<path  d="M10.5 21.75C10.5 21.3358 10.8358 21 11.25 21H27.75C28.1642 21 28.5 21.3358 28.5 21.75C28.5 22.1642 28.1642 22.5 27.75 22.5H11.25C10.8358 22.5 10.5 22.1642 10.5 21.75Z" fill="black"/>
</svg>
