<svg width="19" height="13" viewBox="0 0 19 13" fill="none" xmlns="http://www.w3.org/2000/svg">
      <path
        fillRule="evenodd"
        clipRule="evenodd"
        d="M0.5 1.25C0.5 0.835786 0.835786 0.5 1.25 0.5H17.75C18.1642 0.5 18.5 0.835786 18.5 1.25C18.5 1.66421 18.1642 2 17.75 2H1.25C0.835786 2 0.5 1.66421 0.5 1.25Z"
        fill="black"
      />
      <path
        fillRule="evenodd"
        clipRule="evenodd"
        d="M0.5 6.5C0.5 6.08579 0.835786 5.75 1.25 5.75H17.75C18.1642 5.75 18.5 6.08579 18.5 6.5C18.5 6.91421 18.1642 7.25 17.75 7.25H1.25C0.835786 7.25 0.5 6.91421 0.5 6.5Z"
        fill="black"
      />
      <path
        fillRule="evenodd"
        clipRule="evenodd"
        d="M0.5 11.75C0.5 11.3358 0.835786 11 1.25 11H17.75C18.1642 11 18.5 11.3358 18.5 11.75C18.5 12.1642 18.1642 12.5 17.75 12.5H1.25C0.835786 12.5 0.5 12.1642 0.5 11.75Z"
        fill="black"
      />
    </svg>