<svg width="14" height="14" viewBox="0 0 127 127" fill="none" xmlns="http://www.w3.org/2000/svg">
<path d="M10.8823 124.726L63.9153 71.6934L116.948 124.726C119.096 126.874 122.579 126.874 124.726 124.726C126.874 122.579 126.874 119.096 124.726 116.948L71.6934 63.9152L124.726 10.8822C126.874 8.73436 126.874 5.25196 124.726 3.10407C122.579 0.95619 119.096 0.956191 116.948 3.10407L63.9153 56.1371L10.8823 3.10407C8.73439 0.956185 5.25198 0.956185 3.1041 3.10407C0.956213 5.25195 0.956215 8.73436 3.1041 10.8822L56.1371 63.9153L3.10409 116.948C0.956209 119.096 0.956208 122.579 3.10409 124.726C5.25198 126.874 8.73438 126.874 10.8823 124.726Z" fill="black" stroke="black"/>
</svg>
