<svg width="39" height="33" viewBox="0 0 39 33" fill="none" xmlns="http://www.w3.org/2000/svg">
<rect width="39" height="33" rx="10" fill="black"/>
<path d="M14.3943 22.4905C13.8686 21.9648 13.8686 21.1124 14.3943 20.5867L23.5867 11.3943C24.1124 10.8686 24.9648 10.8686 25.4905 11.3943C26.0162 11.92 26.0162 12.7724 25.4905 13.2981L16.2981 22.4905C15.7724 23.0162 14.92 23.0162 14.3943 22.4905Z" 
fill="white" />
<path d="M14.3943 11.3943C14.92 10.8686 15.7724 10.8686 16.2981 11.3943L20.8943 15.9905L25.4905 20.5867C26.0162 21.1124 26.0162 21.9648 25.4905 22.4905C24.9648 23.0162 24.1124 23.0162 23.5867 22.4905L14.3943 13.2981C13.8686 12.7724 13.8686 11.92 14.3943 11.3943Z" 
fill="white" />
</svg>

